<svg width="244" height="144" viewBox="0 0 244 144" fill="none" xmlns="http://www.w3.org/2000/svg">
<path d="M46.2 90H66.72V74.4H76.56V56.64H66.72V3.6H43.8L5.88 57.84V74.4H46.2V90ZM27.48 56.64L47.64 26.16V56.64H27.48ZM86.1309 64.32C87.0909 77.76 96.3309 90.36 115.411 90.36C138.931 90.36 145.891 73.8 145.891 43.92C145.891 17.28 138.931 0.359995 113.971 0.359995C95.3709 0.359995 83.8509 11.88 83.8509 29.64C83.8509 48.24 95.3709 57.6 110.371 57.6C117.811 57.6 124.291 54.72 127.771 49.8C127.771 66.48 124.771 73.8 116.131 73.8C109.771 73.8 106.291 70.44 105.091 64.32H86.1309ZM115.051 41.4C107.011 41.4 103.171 36.48 103.171 29.88C103.171 22.56 107.491 18 114.571 18C121.531 18 126.091 22.2 126.091 30C126.091 37.08 121.771 41.4 115.051 41.4ZM157.679 47.76C157.679 48.84 157.679 49.92 157.799 51H150.239V61.68H159.599C164.759 79.2 179.879 90.6 199.919 90.6C219.959 90.6 235.079 79.44 239.879 61.2H217.319C213.839 68.16 207.479 71.88 199.679 71.88C191.759 71.88 185.399 68.16 181.799 61.68H202.079V51H178.679C178.559 49.92 178.559 48.84 178.559 47.76C178.559 46.56 178.559 45.36 178.679 44.28H202.079V33.48H182.039C185.639 27.36 191.879 23.76 199.679 23.76C207.479 23.76 213.839 27.36 217.319 34.32H239.879C235.079 16.08 219.959 4.8 199.919 4.8C179.999 4.8 164.999 16.08 159.719 33.48H150.239V44.28H157.799C157.679 45.36 157.679 46.56 157.679 47.76Z" fill="#1D2736"/>
<path d="M7.992 116.954L3.132 137.258H0.666L5.526 116.954H7.992ZM13.637 129.014C13.637 127.982 13.847 127.082 14.267 126.314C14.687 125.534 15.269 124.934 16.013 124.514C16.757 124.082 17.609 123.866 18.569 123.866C19.805 123.866 20.825 124.178 21.629 124.802C22.445 125.414 22.991 126.278 23.267 127.394H20.549C20.405 126.962 20.159 126.626 19.811 126.386C19.475 126.134 19.055 126.008 18.551 126.008C17.831 126.008 17.261 126.272 16.841 126.8C16.421 127.316 16.211 128.054 16.211 129.014C16.211 129.962 16.421 130.7 16.841 131.228C17.261 131.744 17.831 132.002 18.551 132.002C19.571 132.002 20.237 131.546 20.549 130.634H23.267C22.991 131.714 22.445 132.572 21.629 133.208C20.813 133.844 19.793 134.162 18.569 134.162C17.609 134.162 16.757 133.952 16.013 133.532C15.269 133.1 14.687 132.5 14.267 131.732C13.847 130.952 13.637 130.046 13.637 129.014ZM27.6331 120.68V134H25.1131V120.68H27.6331ZM31.4009 122.84C30.9569 122.84 30.5849 122.702 30.2849 122.426C29.9969 122.138 29.8529 121.784 29.8529 121.364C29.8529 120.944 29.9969 120.596 30.2849 120.32C30.5849 120.032 30.9569 119.888 31.4009 119.888C31.8449 119.888 32.2109 120.032 32.4989 120.32C32.7989 120.596 32.9489 120.944 32.9489 121.364C32.9489 121.784 32.7989 122.138 32.4989 122.426C32.2109 122.702 31.8449 122.84 31.4009 122.84ZM32.6429 124.028V134H30.1229V124.028H32.6429ZM44.4026 128.798C44.4026 129.158 44.3786 129.482 44.3306 129.77H37.0406C37.1006 130.49 37.3526 131.054 37.7966 131.462C38.2406 131.87 38.7866 132.074 39.4346 132.074C40.3706 132.074 41.0366 131.672 41.4326 130.868H44.1506C43.8626 131.828 43.3106 132.62 42.4946 133.244C41.6786 133.856 40.6766 134.162 39.4886 134.162C38.5286 134.162 37.6646 133.952 36.8966 133.532C36.1406 133.1 35.5466 132.494 35.1146 131.714C34.6946 130.934 34.4846 130.034 34.4846 129.014C34.4846 127.982 34.6946 127.076 35.1146 126.296C35.5346 125.516 36.1226 124.916 36.8786 124.496C37.6346 124.076 38.5046 123.866 39.4886 123.866C40.4366 123.866 41.2826 124.07 42.0266 124.478C42.7826 124.886 43.3646 125.468 43.7726 126.224C44.1926 126.968 44.4026 127.826 44.4026 128.798ZM41.7926 128.078C41.7806 127.43 41.5466 126.914 41.0906 126.53C40.6346 126.134 40.0766 125.936 39.4166 125.936C38.7926 125.936 38.2646 126.128 37.8326 126.512C37.4126 126.884 37.1546 127.406 37.0586 128.078H41.7926ZM51.768 123.884C52.956 123.884 53.916 124.262 54.648 125.018C55.38 125.762 55.746 126.806 55.746 128.15V134H53.226V128.492C53.226 127.7 53.028 127.094 52.632 126.674C52.236 126.242 51.696 126.026 51.012 126.026C50.316 126.026 49.764 126.242 49.356 126.674C48.96 127.094 48.762 127.7 48.762 128.492V134H46.242V124.028H48.762V125.27C49.098 124.838 49.524 124.502 50.04 124.262C50.568 124.01 51.144 123.884 51.768 123.884ZM61.0764 126.098V130.922C61.0764 131.258 61.1544 131.504 61.3104 131.66C61.4784 131.804 61.7544 131.876 62.1384 131.876H63.3084V134H61.7244C59.6004 134 58.5384 132.968 58.5384 130.904V126.098H57.3504V124.028H58.5384V121.562H61.0764V124.028H63.3084V126.098H61.0764ZM76.16 116.954L71.3 137.258H68.834L73.694 116.954H76.16ZM94.8369 123.884C96.0609 123.884 97.0449 124.262 97.7889 125.018C98.5449 125.762 98.9229 126.806 98.9229 128.15V134H96.4029V128.492C96.4029 127.712 96.2049 127.118 95.8089 126.71C95.4129 126.29 94.8729 126.08 94.1889 126.08C93.5049 126.08 92.9589 126.29 92.5509 126.71C92.1549 127.118 91.9569 127.712 91.9569 128.492V134H89.4369V128.492C89.4369 127.712 89.2389 127.118 88.8429 126.71C88.4469 126.29 87.9069 126.08 87.2229 126.08C86.5269 126.08 85.9749 126.29 85.5669 126.71C85.1709 127.118 84.9729 127.712 84.9729 128.492V134H82.4529V124.028H84.9729V125.234C85.2969 124.814 85.7109 124.484 86.2149 124.244C86.7309 124.004 87.2949 123.884 87.9069 123.884C88.6869 123.884 89.3829 124.052 89.9949 124.388C90.6069 124.712 91.0809 125.18 91.4169 125.792C91.7409 125.216 92.2089 124.754 92.8209 124.406C93.4449 124.058 94.1169 123.884 94.8369 123.884ZM105.742 134.162C104.782 134.162 103.918 133.952 103.15 133.532C102.382 133.1 101.776 132.494 101.332 131.714C100.9 130.934 100.684 130.034 100.684 129.014C100.684 127.994 100.906 127.094 101.35 126.314C101.806 125.534 102.424 124.934 103.204 124.514C103.984 124.082 104.854 123.866 105.814 123.866C106.774 123.866 107.644 124.082 108.424 124.514C109.204 124.934 109.816 125.534 110.26 126.314C110.716 127.094 110.944 127.994 110.944 129.014C110.944 130.034 110.71 130.934 110.242 131.714C109.786 132.494 109.162 133.1 108.37 133.532C107.59 133.952 106.714 134.162 105.742 134.162ZM105.742 131.966C106.198 131.966 106.624 131.858 107.02 131.642C107.428 131.414 107.752 131.078 107.992 130.634C108.232 130.19 108.352 129.65 108.352 129.014C108.352 128.066 108.1 127.34 107.596 126.836C107.104 126.32 106.498 126.062 105.778 126.062C105.058 126.062 104.452 126.32 103.96 126.836C103.48 127.34 103.24 128.066 103.24 129.014C103.24 129.962 103.474 130.694 103.942 131.21C104.422 131.714 105.022 131.966 105.742 131.966ZM118.319 123.884C119.507 123.884 120.467 124.262 121.199 125.018C121.931 125.762 122.297 126.806 122.297 128.15V134H119.777V128.492C119.777 127.7 119.579 127.094 119.183 126.674C118.787 126.242 118.247 126.026 117.563 126.026C116.867 126.026 116.315 126.242 115.907 126.674C115.511 127.094 115.313 127.7 115.313 128.492V134H112.793V124.028H115.313V125.27C115.649 124.838 116.075 124.502 116.591 124.262C117.119 124.01 117.695 123.884 118.319 123.884ZM127.627 126.098V130.922C127.627 131.258 127.705 131.504 127.861 131.66C128.029 131.804 128.305 131.876 128.689 131.876H129.859V134H128.275C126.151 134 125.089 132.968 125.089 130.904V126.098H123.901V124.028H125.089V121.562H127.627V124.028H129.859V126.098H127.627ZM137.288 123.884C138.044 123.884 138.716 124.052 139.304 124.388C139.892 124.712 140.348 125.198 140.672 125.846C141.008 126.482 141.176 127.25 141.176 128.15V134H138.656V128.492C138.656 127.7 138.458 127.094 138.062 126.674C137.666 126.242 137.126 126.026 136.442 126.026C135.746 126.026 135.194 126.242 134.786 126.674C134.39 127.094 134.192 127.7 134.192 128.492V134H131.672V120.68H134.192V125.27C134.516 124.838 134.948 124.502 135.488 124.262C136.028 124.01 136.628 123.884 137.288 123.884Z" fill="#1D2736"/>
</svg>
